<?xml version="1.0" encoding="iso-8859-1"?>
<!-- Generator: Adobe Illustrator 16.0.2, SVG Export Plug-In . SVG Version: 6.00 Build 0)  -->
<!DOCTYPE svg PUBLIC "-//W3C//DTD SVG 1.1//EN" "http://www.w3.org/Graphics/SVG/1.1/DTD/svg11.dtd">
<svg version="1.1" xmlns="http://www.w3.org/2000/svg" xmlns:xlink="http://www.w3.org/1999/xlink" x="0px" y="0px" width="800px"
	 height="800px" viewBox="0 0 800 800" style="enable-background:new 0 0 800 800;" xml:space="preserve">
<g id="Layer_1">
</g>
<g id="Layer_2">
	<g>
		<path style="fill:#F14336;" d="M286.187,284.753c3.384,7.147,4.772,14.937,4.181,23.368c-0.6,8.431-3.703,16.142-9.313,23.13
			c-5.616,6.99-13.855,12.632-24.732,16.922c-10.876,4.297-24.94,5.716-42.174,4.272c0.251,1.256,0.423,3.338,0.516,6.252
			c0.094,2.915,0.186,6.243,0.28,9.967c0.09,3.734,0.136,7.635,0.14,11.707c-0.002,4.08-0.156,7.777-0.472,11.095
			c-0.696,14.487-2.219,27.665-4.566,39.54c-2.354,11.885-6.104,22.902-11.242,33.05c-5.518,11.532-12.623,20.859-21.302,27.971
			c-8.686,7.115-19.547,11.485-32.583,13.114c-15.233,2.066-27.337-0.161-36.295-6.682c-8.966-6.521-15.641-14.232-20.025-23.134
			c-5.329-10.341-8.743-22.533-10.244-36.58c-1.94-14.602-1.709-27.284,0.711-38.036c2.413-10.75,5.88-19.51,10.394-26.279
			c4.514-6.77,9.528-11.845,15.047-15.23c5.513-3.379,10.343-5.322,14.481-5.828c6.077-0.558,11.316,0.351,15.703,2.729
			c4.388,2.385,7.612,4.675,9.684,6.865c0.816-0.812,1.705-1.64,2.68-2.492c0.97-0.843,2.021-1.702,3.15-2.585
			c2.002-1.378,4.326-2.82,6.959-4.325c4.388-2.504,10.937-4.791,19.653-6.859c-0.251-9.401-0.796-18.667-1.641-27.787
			c-0.845-9.122-1.648-17.189-2.395-24.213c-1.442-15.358-2.932-27.285-4.46-35.779c-1.537-8.495-3.056-14.868-4.558-19.137
			c-18.184,5.269-32.648,11.987-43.398,20.163c-10.756,8.185-18.043,19.007-21.867,32.485c-0.065,1.319-0.565,2.069-1.505,2.257
			c-0.814,0.819-1.989,1.054-3.526,0.705c-1.535-0.343-3.12-2.959-4.747-7.853c-0.817-2.442-0.786-4.733,0.095-6.863
			c1.317-3.197,3.698-7.99,7.148-14.386c3.445-6.388,8.807-13.006,16.082-19.839c7.269-6.831,16.662-13.269,28.166-19.318
			c11.504-6.042,25.936-10.479,43.302-13.3c19.242-3.188,35.044-6.918,47.394-11.182c12.351-4.256,22.047-8.723,29.104-13.396
			c7.051-4.663,11.849-9.213,14.389-13.632c2.539-4.419,3.773-8.409,3.716-11.989c0.439-2.694,0.967-4.105,1.599-4.231
			c1.376-1.253,3.163-2.099,5.36-2.538c2.189-0.438,4.576,0.881,7.146,3.95c1.75,2.263,2.831,6.448,3.242,12.554
			c0.405,6.115-1.396,12.586-5.409,19.417c-4.012,6.836-10.987,13.525-20.925,20.071c-9.936,6.555-24.564,11.266-43.868,14.146
			c-7.339,0.817-14.219,1.864-20.64,3.147c-6.428,1.284-12.775,2.553-19.042,3.805c5.076,2.577,9.542,6.573,13.397,11.991
			c3.85,5.426,6.438,13.061,7.754,22.897c1.065,10.224,2.239,20.99,3.521,32.299c1.284,11.319,2.641,26.289,4.083,44.901
			c3.256,0.007,7.743-0.401,13.447-1.22c5.705-0.813,11.33-2.83,16.879-6.063c5.544-3.225,10.45-8.033,14.718-14.432
			c4.261-6.391,6.58-15.165,6.962-26.329c-0.004-1.626-0.001-3.253,0.001-4.888c-0.004-1.627-0.114-3.4-0.329-5.313
			c-0.222-1.912-0.547-3.962-0.986-6.159c-0.5-2.505-0.829-5.373-0.986-8.604c-0.155-3.223,0.738-4.869,2.681-4.936
			c3.256,0.006,6.436,1.242,9.544,3.716c3.101,2.481,5.808,5.439,8.132,8.887C285.401,282.465,285.999,283.813,286.187,284.753z
			 M179.072,377.545c-0.252-4.511-0.563-8.933-0.938-13.258c-0.375-4.326-0.692-8.739-0.938-13.259
			c-8.904,1.13-17.461,4.795-25.672,10.999c-1.692,1.316-3.044,2.732-4.043,4.23c2.128,2.509,4.23,5.266,6.298,8.275
			c2.068,3.009,4.135,6.432,6.205,10.25c3.131,7.526,5.196,14.608,6.203,21.252c0.812,5.706,0.702,11.274-0.332,16.69
			c-1.04,5.426-4.533,9.547-10.486,12.364c-5.083,2.322-9.716,1.537-13.917-2.354c-4.198-3.882-7.27-9.463-9.213-16.739
			c-1.941-7.266-2.413-15.324-1.406-24.166c1-8.833,4.203-16.892,9.595-24.165c-2.382-2.129-5.364-3.979-8.932-5.549
			c-3.575-1.563-6.932-2.038-10.061-1.413c-1.881,0.376-4.267,1.511-7.147,3.384c-2.885,1.884-5.582,5.517-8.088,10.908
			c-2.513,5.39-4.298,13.166-5.363,23.318c-1.071,10.162-0.727,23.699,1.028,40.621c1.749,16.932,4.976,29.406,9.68,37.426
			c4.699,8.029,9.492,13.666,14.385,16.928c5.641,3.762,11.783,5.14,18.429,4.14c6.771-0.375,12.35-3.041,16.738-7.989
			c4.389-4.958,7.976-11.052,10.77-18.288c2.787-7.234,4.751-15.374,5.881-24.4c1.129-9.028,1.878-17.894,2.26-26.611
			c0.376-8.708,0.391-16.779,0.051-24.212C179.711,388.502,179.379,382.373,179.072,377.545z M143.059,371.052
			c-4.639,6.145-7.372,12.888-8.184,20.215c-0.817,7.337-0.523,14.123,0.891,20.357c1.408,6.244,3.382,11.228,5.922,14.952
			c2.533,3.734,4.994,5.038,7.38,3.903c2.696-1.188,4.949-3.754,6.771-7.709c1.817-3.946,2.682-8.604,2.589-13.962
			c-0.094-5.36-1.082-11.106-2.96-17.256c-1.884-6.14-5.017-12.03-9.4-17.679C144.436,372.243,143.431,371.305,143.059,371.052z"/>
		<path style="fill:#F14336;" d="M417.522,418.391c4.64-1.248,8.51-5.123,11.614-11.61c3.104-6.488,5.718-13.366,7.854-20.639
			c2.196-8.583,4.042-18.081,5.553-28.49l3.761-0.751c-0.694,12.852-2.577,24.642-5.647,35.355
			c-1.382,4.516-3.014,8.999-4.892,13.445c-1.883,4.457-4.169,8.497-6.865,12.13c-2.695,3.639-5.913,6.728-9.64,9.26
			c-3.733,2.535-7.979,4.116-12.742,4.747c-7.585,1.188-13.67,0.937-18.241-0.755c-4.578-1.69-8.133-3.998-10.671-6.913
			c-2.539-2.915-4.359-6.294-5.453-10.156c-1.098-3.853-2.02-7.664-2.772-11.426c-1.066,9.342-3.058,16.503-5.974,21.485
			c-2.916,4.983-5.912,8.761-8.981,11.33c-3.638,3.011-7.651,4.951-12.037,5.828c-6.583,1.316-12.443,1.348-17.583,0.092
			c-4.762-1.004-9.101-3.561-13.022-7.666c-3.915-4.106-6.184-10.988-6.814-20.64c-0.437-7.08,0.271-14.968,2.12-23.649
			c1.855-8.683,4.893-17.113,9.125-25.293c4.233-8.179,9.667-15.622,16.317-22.331c6.644-6.705,14.545-11.623,23.698-14.758
			c1.819-0.685,5.453-1.655,10.908-2.913c5.45-1.25,10.282-1.154,14.48,0.284c2.44,0.818,4.919,3.013,7.428,6.583
			c2.503,3.579,3.383,10.004,2.631,19.277l0.47-0.094c1.943-0.059,3.665,0.413,5.171,1.412c3.261,1.631,4.952,5.206,5.076,10.719
			c-0.005,3.264,0.173,8.202,0.516,14.811c0.344,6.616,1.062,13.073,2.159,19.37c1.093,6.306,2.658,11.692,4.699,16.174
			C411.799,417.091,414.385,419.018,417.522,418.391z M387.819,350.497c-0.061-5.199-0.725-8.901-1.973-11.097
			c-1.256-2.193-2.636-3.789-4.137-4.795c-1.505-0.998-3.358-1.285-5.547-0.848c-5.579,1.444-10.473,4.706-14.67,9.778
			c-4.203,5.079-7.747,11.006-10.628,17.77c-2.887,6.771-5.114,13.979-6.679,21.626c-1.574,7.647-2.358,14.733-2.354,21.25
			c-0.002,6.526,0.576,11.865,1.737,16.033c1.153,4.17,3.182,6.134,6.063,5.878c4.196-0.181,7.728-2.927,10.58-8.226
			c2.854-5.292,4.903-11.324,6.162-18.1c1.752-7.517,2.944-16.234,3.577-26.14c0.252-3.633,1.004-7.207,2.258-10.72
			c1.064-2.817,2.808-5.526,5.22-8.133C379.842,352.174,383.301,350.75,387.819,350.497z"/>
		<path style="fill:#F14336;" d="M526.79,387.754c2.693-4.451,4.938-9.544,6.725-15.28c1.788-5.735,3.461-11.204,5.034-16.407
			c1.693-6.207,3.07-12.35,4.14-18.43l3.762-0.752c-1.255,8.403-2.889,16.552-4.894,24.448c-1.883,6.9-4.361,14.073-7.432,21.531
			c-3.077,7.461-7.185,13.828-12.321,19.087l0.471-0.094c-4.521,5.135-9.646,8.849-15.376,11.14
			c-5.739,2.285-11.116,3.934-16.127,4.935c-5.643,1.127-11.603,1.501-17.866,1.125c-4.952-0.317-9.641-1.336-14.057-3.059
			c-4.424-1.721-8.242-4.542-11.471-8.464c-3.228-3.916-5.734-9.123-7.521-15.609c-1.785-6.489-2.329-14.525-1.642-24.12
			c1.073-17.488,4.517-30.805,10.35-39.962c5.826-9.148,12.064-15.857,18.715-20.12c7.774-5.136,16.52-7.861,26.236-8.176
			c3.317,0.315,6.266,1.192,8.838,2.634c2.256,1.505,4.338,3.778,6.252,6.818c1.906,3.042,2.831,7.669,2.771,13.87l0.094,0.47
			c0.188,0.94,0.14,2.34-0.141,4.184c-0.287,1.853-0.583,3.623-0.895,5.312c0.251,1.257,0.187,2.577-0.188,3.95
			c-0.381,1.383-0.724,2.918-1.035,4.608l0.094,0.47c-0.817,2.448-1.87,4.942-3.151,7.475c-1.287,2.542-2.873,4.814-4.749,6.817
			c-1.883,2.012-3.891,3.391-6.019,4.136c-2.134,0.756-4.549,0.1-7.24-1.976c-1.568-1.313-2.637-2.567-3.196-3.761
			c-1.258-3.004-0.033-5.86,3.668-8.556c2.317-1.441,4.369-4.212,6.16-8.321c1.786-4.1,2.996-8.254,3.623-12.458
			c0.627-4.198,0.597-8.021-0.093-11.473c-0.689-3.445-2.352-5.229-4.982-5.361c-2.638-0.122-5.22,2.021-7.759,6.44
			c-2.54,4.419-4.755,10.079-6.632,16.971c-1.883,6.9-3.311,14.436-4.282,22.614c-0.977,8.186-1.37,16.004-1.179,23.459
			c0.186,7.466,1.408,13.166,3.665,17.115c2.256,3.948,5.169,6.712,8.743,8.276l0.471-0.094c0.371,0.253,0.734,0.426,1.081,0.516
			c0.341,0.101,0.703,0.272,1.081,0.517c7.272,2.138,13.507,1.947,18.712-0.561c5.199-2.505,9.437-5.386,12.696-8.649l0.47-0.094
			c1.631-1.625,2.976-3.039,4.044-4.23C525.499,389.479,526.284,388.512,526.79,387.754z"/>
		<path style="fill:#F14336;" d="M575.594,360.398c1.063,6.962,2.643,12.842,4.745,17.632c2.098,4.798,4.868,6.849,8.321,6.159
			c4.64-1.248,8.511-5.123,11.614-11.61c3.104-6.488,5.718-13.366,7.854-20.639c2.196-8.583,4.042-18.081,5.553-28.49l3.762-0.751
			c-0.695,12.852-2.578,24.642-5.648,35.355c-2.763,9.032-6.756,17.569-11.992,25.622c-5.236,8.052-12.618,12.706-22.146,13.96
			c-4.141,0.5-7.81-0.318-11-2.446c-3.199-2.127-6.065-4.656-8.604-7.571c-2.538-2.916-4.688-5.908-6.439-8.981
			c-1.753-3.072-2.975-5.517-3.667-7.334c-1.124-2.381-2.031-4.889-2.726-7.522c-0.686-2.629-1.47-5.331-2.35-8.088
			c-0.124-0.624-0.339-1.315-0.658-2.069c-0.31-0.747-0.531-1.436-0.657-2.068l-0.846-4.231c-0.935-3.068-1.706-6.092-2.302-9.075
			c-0.595-2.976-1.143-5.715-1.645-8.228c-1.315-6.582-2.475-13.602-3.477-21.064c-1.001-7.454-1.684-15.385-2.065-23.789
			c-0.5-7.395-0.783-14.512-0.843-21.345c-0.066-6.832,0.155-13.064,0.661-18.713c-1.572,0.314-3.228,0.974-4.983,1.974
			c-1.193,0.567-2.299,1.117-3.339,1.645c-1.031,0.535-2.144,1.085-3.338,1.645c-3.004,1.257-5.106,2.167-6.301,2.727
			c-0.877,0.503-2.096,0.907-3.667,1.222c-1.187,0.566-2.442,0.817-3.762,0.752c-1.565,0.313-2.852,0.409-3.855,0.282
			c-0.687-0.184-1.373-0.375-2.068-0.565c-0.686-0.184-1.404-0.529-2.163-1.035c-0.062-0.308-0.167-0.455-0.329-0.423
			c-0.154,0.031-0.266-0.107-0.328-0.423c-0.371-0.246-0.596-0.53-0.658-0.847c-0.371-0.246-0.595-0.53-0.658-0.846
			c-0.371-0.246-0.595-0.53-0.658-0.847l-0.094-0.469l-0.094-0.471l-0.564-0.376l-0.094-0.47l-0.094-0.471l-0.188-0.94
			c-0.188-0.94-0.215-1.913-0.093-2.915c0.127-1.003,0.255-2.007,0.376-3.009c0.443-1.067,1.165-2.348,2.163-3.855l1.128-1.692
			c0.316-0.063,0.725-0.465,1.224-1.222l1.692-1.316l1.41-0.282l0.563,2.82l0.282,1.411l0.188,0.94
			c-0.246,0.377-0.36,0.645-0.33,0.8c0.032,0.16-0.074,0.427-0.329,0.798c-0.183,0.694-0.339,1.13-0.47,1.316
			c-0.122,0.192-0.279,0.629-0.471,1.317c-0.373,1.38-0.309,2.506,0.188,3.385l0.094,0.471l0.095,0.47l0.094,0.471l0.47-0.094
			l0.564,0.375c0.315-0.063,0.647-0.046,0.987,0.047c0.348,0.099,0.802-0.076,1.363-0.517c1.881-0.375,3.261-0.813,4.138-1.315
			l0.94-0.188c0.254-0.373,0.692-0.628,1.316-0.753c0.254-0.373,0.538-0.596,0.847-0.657c0.315-0.063,0.755-0.312,1.316-0.753
			l5.36-2.538c4.697-2.566,8.994-4.731,12.883-6.487c3.137-31.59,13.167-48.264,30.097-50.019c4.513-0.246,8.714,2.009,12.6,6.771
			c3.887,4.771,6.892,11.664,9.023,20.688c6.079-2.193,12.189-4.223,18.337-6.11c6.142-1.876,12.191-3.414,18.149-4.605
			c4.07-0.813,7.863-1.403,11.378-1.784c3.508-0.373,6.925-0.406,10.249-0.092c3.317,0.315,6.204,0.883,8.65,1.693
			c0.309-0.062,0.842,0.16,1.599,0.659c0.309-0.062,0.842,0.16,1.599,0.658c0.308-0.062,0.842,0.161,1.598,0.658l0.564,0.377
			l0.564,0.376c1.879,1.259,3.147,2.717,3.808,4.374c0.653,1.664,0.765,3.025,0.328,4.09c-0.505,0.758-0.72,1.29-0.658,1.599
			c-0.316,0.063-0.535,0.19-0.658,0.375c-0.129,0.194-0.35,0.314-0.658,0.376l-1.41,0.282l-1.411,0.282l-0.47-2.351
			c-0.125-0.625-0.283-0.999-0.47-1.13c-0.193-0.121-0.313-0.342-0.376-0.657c-0.378-0.245-0.579-0.45-0.611-0.612
			c-0.031-0.154-0.239-0.356-0.611-0.611l-0.564-0.376l-0.47,0.094l-0.094-0.471c-0.316,0.063-0.663-0.028-1.035-0.282l-0.563-0.376
			c-0.378-0.245-0.726-0.344-1.034-0.282c-0.316,0.063-0.662-0.028-1.035-0.283l-4.513-0.564c-2.637-0.122-4.581-0.063-5.83,0.187
			c-0.693-0.182-1.666-0.155-2.915,0.094l-2.82,0.564c-8.588,1.066-18.214,3.479-28.869,7.235c-3.01,1.259-5.958,2.414-8.839,3.479
			c-2.889,1.065-5.989,2.258-9.31,3.571c1.189,10.848,0.652,23.263-1.604,37.236c-2.264,13.981-7.058,28.715-14.393,44.191
			c0.183,4.204,0.511,8.294,0.985,12.271c0.467,3.987,0.918,7.884,1.361,11.708c0.187,2.576,0.436,5.047,0.751,7.429
			c0.309,2.383,0.56,4.861,0.752,7.428c0.186,2.576,0.516,5.031,0.985,7.381c0.471,2.352,0.764,4.661,0.893,6.911l0.47,2.352
			L575.594,360.398z M567.521,266.179c-0.001,4.889,0.072,9.764,0.233,14.622c0.153,4.858,0.356,9.546,0.608,14.058
			c2.19-5.328,4.059-11.079,5.598-17.254c1.532-6.174,2.741-12.359,3.623-18.571c0.877-6.202,1.364-12.328,1.46-18.382
			c0.091-6.045-0.019-11.486-0.326-16.314l-6.771,2.82c-0.569,0.442-1.633,0.815-3.198,1.127c-0.378,4.644-0.611,9.168-0.706,13.587
			s-0.113,8.419-0.049,11.988C567.868,258.126,567.709,262.229,567.521,266.179z M574.864,207.504
			c-1.007-1.755-1.882-1.656-2.633,0.282c-0.756,1.946-1.538,4.952-2.352,9.026c1.503-0.622,2.786-1.123,3.855-1.505
			c1.063-0.372,2.192-0.842,3.385-1.409C576.62,211.394,575.865,209.26,574.864,207.504z"/>
	</g>
</g>
<g id="Layer_3">
	<g>
		<path style="fill:#81C583;" d="M272.862,626.135c8.151,1.46,15.665,1.653,22.534,0.564c6.863-1.088,13.039-3.063,18.527-5.912
			c5.482-2.856,10.417-6.336,14.803-10.446c4.38-4.109,8.169-8.449,11.36-13.031c7.619-10.517,13.465-22.912,17.528-37.185
			l4.688-0.208c-2.143,10.536-5.324,19.748-9.536,27.63c-4.219,7.889-8.877,14.684-13.969,20.39
			c-5.098,5.707-10.438,10.379-16.014,14.022c-5.582,3.637-10.807,6.48-15.67,8.525c-6.672,2.645-13.322,4.115-19.964,4.411
			c-6.642,0.296-11.537,0.249-14.685-0.131c-8.385-0.673-17.411-2.688-27.083-6.038c-9.679-3.355-18.354-9.166-26.024-17.437
			c-7.677-8.271-13.397-19.564-17.165-33.881c-3.769-14.316-3.8-32.647-0.097-54.995c3.085-18.664,7.212-34.378,12.389-47.135
			c-2.123-0.688-4.239-1.378-6.355-2.067c-2.123-0.688-4.245-1.505-6.373-2.456c-9.573-4.009-17.809-8.732-24.705-14.169
			c-6.896-5.43-13.268-10.761-19.109-15.983c-5.847-5.22-11.665-9.916-17.459-14.099c-5.801-4.177-12.252-7.021-19.366-8.534
			c-3.183-1.162-6.733-1.787-10.653-1.876c-3.918-0.082-7.189-0.2-9.802-0.347c-3.662-0.095-4.484-0.975-2.465-2.63
			c0.496-0.542,0.997-0.955,1.511-1.242c0.507-0.279,0.886-0.558,1.137-0.833c5.896-2.348,13.005-3.839,21.332-4.473
			c8.321-0.625,18.087,1.808,29.293,7.311c5.865,2.871,11.637,6.4,17.303,10.583c5.666,4.189,11.271,8.502,16.821,12.953
			c5.544,4.451,11.158,8.837,16.831,13.148c5.672,4.317,11.586,8.294,17.754,11.934c6.237-12.277,13.042-22.11,20.415-29.484
			c7.367-7.374,14.689-12.984,21.956-16.831c7.267-3.846,14.006-6.36,20.216-7.554c6.21-1.187,11.275-1.737,15.193-1.654
			l2.735-0.122c0.781-0.035,1.822-0.014,3.133,0.056c1.307,0.077,2.615,0.215,3.933,0.413c2.094,0.17,5.454,0.932,10.084,2.292
			c4.623,1.36,9.112,3.968,13.461,7.817c4.343,3.856,7.72,9.382,10.132,16.578c2.406,7.202,2.572,16.853,0.504,28.946
			c-0.665,2.641-1.515,5.547-2.548,8.725c-1.033,3.178-2.396,6.37-4.076,9.576c-1.687,3.207-3.766,6.37-6.233,9.477
			c-2.474,3.113-5.481,5.92-9.021,8.426c-6.614,3.952-13.455,5.559-20.533,4.828c-7.079-0.726-13.265-4.756-18.545-12.094
			c-3.346-4.805-4.855-9.308-4.515-13.5l-0.781,0.035c-4.666,0.733-9.669,1.279-14.999,1.646c-5.335,0.372-10.747,0.416-16.24,0.135
			c-2.58,6.641-4.582,12.926-6.012,18.861c-1.437,5.936-2.704,11.149-3.807,15.632c-1.075,5.271-1.893,10.262-2.465,14.985
			c-2.384,16.81-2.751,32.094-1.093,45.849c0.785,5.972,2.022,11.789,3.711,17.451c1.683,5.668,4.201,10.842,7.541,15.519
			c3.339,4.684,7.489,8.603,12.463,11.776C259.757,623.451,265.783,625.404,272.862,626.135z M279.614,425.799
			c-7.326,5.55-13.669,12.547-19.031,21.007c-5.367,8.459-9.933,17.341-13.691,26.64c4.484,1.11,9.213,1.812,14.187,2.111
			c4.968,0.305,10.309,0.067,16.018-0.712c0.211-1.05,0.721-2.774,1.533-5.157c0.806-2.385,1.993-4.982,3.568-7.793
			c1.569-2.811,3.523-5.765,5.869-8.873c2.34-3.101,5.279-5.911,8.826-8.418c2.274-1.667,4.566-2.943,6.875-3.828
			c2.059-0.612,4.138-0.772,6.243-0.473c2.099,0.298,3.856,1.725,5.279,4.266c1.69,2.8,1.332,6.597-1.06,11.399
			c-1.925,3.743-5.092,7.34-9.502,10.796c-4.415,3.463-9.571,6.364-15.467,8.712c-1.295,0.321-2.388,0.633-3.286,0.93
			c-0.904,0.303-1.997,0.614-3.286,0.929c-0.251,0.274-0.356,0.798-0.321,1.58c-0.1,3.662,1.5,5.939,4.806,6.833
			c3.3,0.899,7.062,0.34,11.277-1.675c4.217-2.011,8.37-5.461,12.459-10.341c4.089-4.878,6.992-11.4,8.721-19.568
			c1.699-8.689,2.244-15.563,1.627-20.625c-0.616-5.062-1.764-8.857-3.442-11.394c-1.678-2.531-3.515-4.212-5.508-5.04
			c-1.994-0.823-3.382-1.219-4.164-1.185c-3.411-0.369-6.729-0.154-9.953,0.637c-3.231,0.799-6.246,1.912-9.051,3.339
			C286.07,421.34,282.891,423.304,279.614,425.799z M284.077,473.359c2.566-0.897,5.829-2.345,9.789-4.35
			c3.954-1.999,7.672-4.905,11.161-8.717l0.747-0.816c0.484-0.804,1.341-2.017,2.579-3.638c1.23-1.62,2.064-3.351,2.508-5.201
			c0.461-1.323,0.281-2.489-0.547-3.498c-0.874-2.047-3.468-1.669-7.779,1.128c-3.296,2.238-6.681,5.325-10.158,9.259
			c-3.483,3.942-6.158,8.299-8.031,13.08c-0.228,0.794-0.578,1.727-1.05,2.788L284.077,473.359z"/>
		<path style="fill:#81C583;" d="M447.125,601.164c3.884-0.692,7.479-3.464,10.787-8.31c3.308-4.844,6.141-10.059,8.504-15.644
			c2.586-6.379,5.136-13.539,7.657-21.48l3.126-0.139c-2.155,10.274-5.138,19.545-8.942,27.799
			c-1.675,3.47-3.548,6.881-5.613,10.232c-2.07,3.358-4.415,6.332-7.041,8.926c-2.624,2.599-5.602,4.688-8.92,6.269
			c-3.325,1.578-6.943,2.326-10.861,2.244c-1.837-0.182-3.476-0.306-4.909-0.369c-1.44-0.071-2.822-0.333-4.146-0.795l-0.391,0.018
			l-0.391,0.017l-0.391,0.018c-0.274-0.25-0.542-0.367-0.799-0.356l-0.798-0.356c-3.977-1.389-7.276-3.652-9.894-6.802
			c-2.623-3.144-4.602-6.646-5.947-10.501c-1.346-3.855-2.249-7.925-2.696-12.211c-0.453-4.286-0.759-8.248-0.921-11.898
			c0.199-1.312,0.275-2.617,0.218-3.924c-0.058-1.301,0.013-2.606,0.217-3.924c0.117-3.138,0.387-5.889,0.808-8.257
			c0.175-1.83,0.304-3.339,0.386-4.518c0.076-1.178,0.101-2.157,0.065-2.938l-0.018-0.392l-0.034-0.781
			c-0.023-0.519-0.105-0.839-0.239-0.968c-0.14-0.122-0.209-0.315-0.221-0.578l-0.018-0.391c-0.525,0.023-1.038,0.181-1.546,0.46
			c-0.513,0.286-1.021,0.572-1.528,0.851c0.012,0.263-0.117,0.396-0.373,0.408c-1.271,0.839-2.96,2.481-5.066,4.923
			c-2.111,2.442-4.242,5.804-6.402,10.071c-2.158,4.273-4.143,9.579-5.947,15.922c-1.81,6.345-2.902,13.965-3.291,22.851
			l0.191,4.298c0.162,3.65-1.119,7.163-3.837,10.544c-2.724,3.381-5.235,5.517-7.544,6.403c-1.021,0.565-1.939,0.411-2.761-0.464
			c-0.821-0.882-1.524-1.957-2.101-3.234c-0.839-1.271-1.562-2.805-2.162-4.601c-2.691-7.709-4.77-16.359-6.242-25.951
			c-1.408-8.286-2.428-18.027-3.061-29.223c-0.626-11.19-0.199-23.607,1.28-37.247c2.44-27.247,6.773-47.141,13.005-59.688
			c6.226-12.541,14.181-18.502,23.866-17.894c4.187,0.339,7.644,3.25,10.371,8.739c2.721,5.494,4.025,12.807,3.911,21.943
			c-0.119,9.143-1.942,19.464-5.474,30.973c-3.537,11.51-9.336,23.316-17.411,35.418c-0.34,4.192-0.609,8.315-0.82,12.368
			c-0.211,4.058-0.498,7.918-0.855,11.586c3.116-6.14,7.141-12.453,12.076-18.936c4.93-6.482,11.189-12.498,18.771-18.059
			c2.024-1.393,5.214-2.972,9.576-4.731c4.356-1.76,8.274-1.671,11.756,0.26c2.14,1.213,3.652,2.908,4.532,5.083
			c0.88,2.181,1.374,4.508,1.484,6.98c0.11,2.479,0.021,4.893-0.265,7.255c-0.287,2.361-0.657,4.335-1.107,5.921
			c-0.455,1.586-1.27,5.28-2.443,11.069c-1.18,5.796-1.951,11.966-2.309,18.501c-0.364,6.542,0.167,12.587,1.589,18.132
			c1.421,5.551,4.493,8.608,9.216,9.181c0.519-0.023,0.912,0.026,1.181,0.143C446.224,601.534,446.611,601.45,447.125,601.164z
			 M386.931,506.366c-0.607,3.942-1.154,7.881-1.627,11.816c-0.479,3.937-0.897,7.741-1.255,11.407
			c3.401-5.631,6.377-12.026,8.934-19.187c2.55-7.159,4.523-14.098,5.925-20.815c1.396-6.717,2.171-12.819,2.318-18.305
			c0.147-5.488-0.216-9.251-1.09-11.304c-1.148-2.298-2.47-1.193-3.963,3.308c-1.501,4.507-2.887,9.915-4.172,16.235
			C390.238,486.908,388.55,495.859,386.931,506.366z"/>
		<path style="fill:#81C583;" d="M540.589,590.354c2.725-3.253,5.099-7.077,7.123-11.474c2.02-4.395,3.729-8.582,5.119-12.559
			c1.61-4.768,3.099-9.533,4.453-14.29l3.517-0.156c-1.273,6.582-3.084,12.927-5.418,19.031c-1.856,5.306-4.354,10.762-7.492,16.383
			c-3.145,5.62-6.983,10.231-11.521,13.821c-4.281,3.58-8.739,5.931-13.387,7.055c-4.648,1.118-9.188,1.778-13.613,1.975
			c-4.95,0.22-9.931-0.213-14.933-1.293c-3.953-0.871-7.734-2.269-11.344-4.194c-3.608-1.926-6.666-4.659-9.172-8.204
			c-2.506-3.541-4.272-8.032-5.297-13.466c-1.024-5.435-0.923-11.959,0.304-19.586c2.256-13.929,6.165-24.214,11.742-30.86
			c5.577-6.639,11.305-11.268,17.194-13.878c6.643-3.165,14.031-4.276,22.165-3.334c2.635,0.666,5.032,1.733,7.188,3.203
			c1.632,1.494,3.095,3.581,4.389,6.264c1.294,2.684,1.788,6.515,1.489,11.482l0.018,0.391c-0.228,0.793-0.374,1.913-0.438,3.347
			c-0.07,1.441-0.333,2.822-0.794,4.146l-1.016,3.568c-0.205,1.317-0.783,3.039-1.729,5.165c-1.913,4-4.76,7.393-8.551,10.168
			c-4.042,3.055-8.124,5.193-12.242,6.417c-4.123,1.229-7.481,2.032-10.07,2.405c0.081,1.825,0.005,3.132-0.218,3.924
			c-0.258,6.018,0.411,10.746,2.002,14.198c1.585,3.453,3.853,6.031,6.803,7.723l0.391-0.018c0.542,0.502,1.078,0.869,1.614,1.103
			c5.854,2.614,11.037,3.228,15.545,1.853c4.502-1.374,8.142-3.164,10.918-5.379l0.391-0.018
			C538.49,593.059,540.111,591.421,540.589,590.354z M518.78,522.426c-1.849-0.438-3.762,0.558-5.738,2.995
			c-1.983,2.438-3.856,5.718-5.631,9.84c-1.773,4.129-3.394,8.83-4.853,14.113c-1.466,5.289-2.596,10.685-3.391,16.201
			c3.838-1.736,7.121-4.097,9.863-7.093c1.988-2.175,3.779-4.407,5.378-6.699c1.593-2.285,2.87-4.365,3.833-6.238
			c0.473-1.062,0.893-1.929,1.255-2.6c0.361-0.664,0.659-1.265,0.898-1.801c1.389-3.977,2.125-7.923,2.214-11.842
			C522.691,525.385,521.415,523.092,518.78,522.426z"/>
		<path style="fill:#81C583;" d="M621.461,586.758c2.724-3.253,5.165-7.08,7.318-11.482c2.153-4.401,4.181-8.602,6.095-12.602
			c2.136-4.792,4.009-9.574,5.626-14.342l3.125-0.139c-2.055,6.617-4.383,12.984-6.979,19.1c-2.375,5.329-5.264,10.803-8.664,16.436
			c-3.408,5.631-7.509,10.254-12.303,13.855l0.391-0.018c-4.281,3.58-8.874,5.937-13.778,7.073c-4.91,1.129-9.449,1.79-13.613,1.975
			c-4.688,0.208-9.54-0.23-14.542-1.311c-3.953-0.87-7.605-2.274-10.952-4.211c-3.353-1.937-6.08-4.685-8.196-8.247
			c-2.115-3.558-3.49-8.066-4.124-13.519c-0.634-5.453-0.074-11.997,1.671-19.647c3.037-13.964,7.466-24.272,13.305-30.93
			c5.833-6.651,11.695-11.286,17.585-13.896c6.905-3.176,14.294-4.287,22.165-3.333c2.636,0.666,4.903,1.739,6.798,3.22
			c1.633,1.494,3.028,3.583,4.193,6.272c1.16,2.689,1.331,6.535,0.513,11.525l0.018,0.391c0.034,0.781-0.179,1.904-0.634,3.355
			c-0.461,1.459-0.919,2.849-1.38,4.172c0.046,1.044-0.17,2.1-0.644,3.161c-0.478,1.067-0.944,2.262-1.405,3.585l0.017,0.391
			c-0.963,1.872-2.121,3.752-3.468,5.635c-1.354,1.89-2.914,3.525-4.676,4.906c-1.767,1.387-3.558,2.25-5.365,2.587
			c-1.813,0.344-3.68-0.484-5.592-2.491c-1.102-1.254-1.807-2.396-2.109-3.429c-0.641-2.579,0.701-4.73,4.02-6.443
			c2.047-0.873,4.045-2.852,6-5.942c1.948-3.083,3.438-6.282,4.467-9.594c1.026-3.305,1.477-6.39,1.35-9.259
			c-0.128-2.864-1.247-4.508-3.352-4.94c-2.11-0.427-4.458,0.981-7.054,4.229c-2.597,3.247-5.085,7.535-7.454,12.857
			c-2.374,5.33-4.461,11.227-6.259,17.699c-1.804,6.479-3.092,12.731-3.863,18.767c-0.777,6.041-0.499,10.787,0.829,14.25
			c1.328,3.464,3.334,6.054,6.021,7.758l0.391-0.018c0.268,0.251,0.539,0.435,0.808,0.551c0.262,0.123,0.533,0.306,0.807,0.551
			c5.598,2.626,10.646,3.245,15.154,1.871c4.503-1.374,8.276-3.169,11.309-5.396l0.391-0.017c1.517-1.107,2.776-2.081,3.785-2.908
			C620.208,587.988,620.959,587.307,621.461,586.758z"/>
		<path style="fill:#81C583;" d="M730.757,588.554c3.598-1.2,6.983-4.287,10.157-9.26c3.168-4.967,5.942-10.112,8.317-15.44
			c2.585-6.379,5.019-13.27,7.302-20.681l3.125-0.139c-2.178,9.754-4.922,18.489-8.23,26.202
			c-2.835,6.651-6.666,12.957-11.49,18.909c-4.824,5.958-10.74,9.347-17.75,10.185l-0.391,0.018l-2.345,0.104
			c-6.251,0.278-12.304-0.762-18.145-3.108c-5.848-2.346-11.133-5.242-15.85-8.69c-4.722-3.441-8.531-6.991-11.434-10.647
			c-2.902-3.652-4.412-6.783-4.528-9.39c-0.104-2.344,0.611-5.245,2.157-8.708c1.541-3.458,3.411-6.936,5.604-10.427
			c2.193-3.486,4.332-6.712,6.42-9.68c2.083-2.961,3.498-4.981,4.232-6.06c0.496-0.542,0.741-0.945,0.729-1.208
			c1.277-0.577,1.51-1.241,0.694-1.988c-0.273-0.245-1.049-0.082-2.326,0.495c-1.021,0.572-1.663,0.857-1.919,0.868
			c0.012,0.263-0.117,0.396-0.373,0.408c-1.271,0.839-2.961,2.481-5.066,4.923c-2.111,2.442-4.243,5.804-6.402,10.071
			c-2.159,4.273-4.144,9.579-5.947,15.922c-1.81,6.345-2.902,13.965-3.29,22.851l0.19,4.298c0.162,3.65-1.118,7.163-3.837,10.544
			c-2.724,3.381-5.235,5.518-7.544,6.403c-1.021,0.565-1.939,0.411-2.761-0.463c-0.822-0.882-1.524-1.958-2.102-3.234
			c-0.84-1.272-1.563-2.806-2.162-4.602c-2.691-7.709-4.771-16.359-6.243-25.951c-1.408-8.286-2.428-18.027-3.061-29.223
			c-0.626-11.19-0.199-23.607,1.28-37.246c2.44-27.247,6.773-47.141,13.005-59.688c6.226-12.542,14.182-18.503,23.866-17.894
			c4.188,0.339,7.644,3.25,10.371,8.738c2.721,5.494,4.025,12.807,3.911,21.943c-0.119,9.144-1.941,19.464-5.474,30.973
			c-3.537,11.51-9.337,23.316-17.411,35.418c-0.339,4.192-0.608,8.315-0.82,12.368c-0.211,4.059-0.498,7.918-0.854,11.586
			c3.115-6.14,7.08-12.45,11.881-18.927c4.801-6.477,11.121-12.495,18.965-18.067c2.024-1.393,5.215-2.972,9.577-4.731
			c4.355-1.76,8.274-1.671,11.755,0.26c2.67,1.447,4.398,3.59,5.179,6.424c0.775,2.839,1.103,5.822,0.986,8.959l0.034,0.781
			c-0.216,1.055-0.653,2.904-1.319,5.539c-0.666,2.641-2.043,5.51-4.12,8.599c-2.082,3.097-5.139,6.296-9.163,9.607
			c-4.03,3.312-9.507,6.295-16.435,8.952l-1.528,0.851c-0.514,0.286-1.023,0.503-1.537,0.655c-0.519,0.158-1.023,0.505-1.52,1.047
			c-1.282,0.583-2.35,1.474-3.207,2.688c-0.864,1.212-1.004,2.459-0.422,3.737c0.601,1.802,2.25,3.686,4.949,5.652
			c2.175,1.995,4.81,4.031,7.905,6.106c3.09,2.084,6.441,4.02,10.045,5.818c3.603,1.797,7.256,3.334,10.97,4.601
			c3.708,1.273,7.134,1.971,10.271,2.088l0.391-0.018L730.757,588.554z M669.391,493.809c-0.606,3.942-1.153,7.881-1.628,11.816
			c-0.479,3.937-0.896,7.741-1.254,11.407c3.401-5.631,6.316-12.023,8.738-19.178c2.422-7.153,4.328-14.089,5.729-20.806
			c1.396-6.717,2.232-12.821,2.514-18.313c0.275-5.494-0.021-9.26-0.895-11.313c-1.148-2.298-2.469-1.193-3.963,3.308
			c-1.5,4.507-2.887,9.915-4.172,16.235C672.698,474.351,671.01,483.302,669.391,493.809z"/>
	</g>
</g>
</svg>
